<?xml version="1.0" encoding="UTF-8" standalone="no"?>
<!DOCTYPE svg PUBLIC "-//W3C//DTD SVG 1.1//EN"
 "http://www.w3.org/Graphics/SVG/1.1/DTD/svg11.dtd">
<!-- Generated by graphviz version 13.1.0 (20250701.0955)
 -->
<!-- Title: src/driver_max30102.h Pages: 1 -->
<svg width="542pt" height="232pt"
 viewBox="0.00 0.00 542.00 232.00" xmlns="http://www.w3.org/2000/svg" xmlns:xlink="http://www.w3.org/1999/xlink">
<g id="graph0" class="graph" transform="scale(1 1) rotate(0) translate(4 228)">
<title>src/driver_max30102.h</title>
<!-- Node1 -->
<g id="Node000001" class="node">
<title>Node1</title>
<g id="a_Node000001"><a xlink:title="driver max30102 header file">
<polygon fill="#999999" stroke="#666666" points="409.5,-224 294.5,-224 294.5,-204 409.5,-204 409.5,-224"/>
<text xml:space="preserve" text-anchor="middle" x="352" y="-210.5" font-family="Helvetica,sans-Serif" font-size="10.00">src/driver_max30102.h</text>
</a>
</g>
</g>
<!-- Node2 -->
<g id="Node000002" class="node">
<title>Node2</title>
<g id="a_Node000002"><a xlink:href="driver__max30102__interface_8h.html" target="_top" xlink:title="driver max30102 interface header file">
<polygon fill="white" stroke="#666666" points="347.38,-168 216.62,-168 216.62,-136 347.38,-136 347.38,-168"/>
<text xml:space="preserve" text-anchor="start" x="224.62" y="-154.5" font-family="Helvetica,sans-Serif" font-size="10.00">interface/driver_max30102</text>
<text xml:space="preserve" text-anchor="middle" x="282" y="-142.5" font-family="Helvetica,sans-Serif" font-size="10.00">_interface.h</text>
</a>
</g>
</g>
<!-- Node1&#45;&gt;Node2 -->
<g id="edge1_Node000001_Node000002" class="edge">
<title>Node1&#45;&gt;Node2</title>
<g id="a_edge1_Node000001_Node000002"><a xlink:title=" ">
<path fill="none" stroke="#63b8ff" d="M332.45,-196.24C322.26,-187.51 309.88,-176.9 299.94,-168.37"/>
<polygon fill="#63b8ff" stroke="#63b8ff" points="330.04,-198.79 339.91,-202.64 334.6,-193.47 330.04,-198.79"/>
</a>
</g>
</g>
<!-- Node10 -->
<g id="Node000010" class="node">
<title>Node10</title>
<g id="a_Node000010"><a xlink:href="driver__max30102_8c.html" target="_top" xlink:title="driver max30102 source file">
<polygon fill="white" stroke="#666666" points="480.5,-162 365.5,-162 365.5,-142 480.5,-142 480.5,-162"/>
<text xml:space="preserve" text-anchor="middle" x="423" y="-148.5" font-family="Helvetica,sans-Serif" font-size="10.00">src/driver_max30102.c</text>
</a>
</g>
</g>
<!-- Node1&#45;&gt;Node10 -->
<g id="edge9_Node000001_Node000010" class="edge">
<title>Node1&#45;&gt;Node10</title>
<g id="a_edge9_Node000001_Node000010"><a xlink:title=" ">
<path fill="none" stroke="#63b8ff" d="M371.85,-196.22C384.92,-185.18 401.53,-171.14 412.22,-162.11"/>
<polygon fill="#63b8ff" stroke="#63b8ff" points="369.63,-193.52 364.25,-202.65 374.15,-198.87 369.63,-193.52"/>
</a>
</g>
</g>
<!-- Node3 -->
<g id="Node000003" class="node">
<title>Node3</title>
<g id="a_Node000003"><a xlink:href="driver__max30102__fifo_8h.html" target="_top" xlink:title="driver max30102 fifo header file">
<polygon fill="white" stroke="#666666" points="130,-100 0,-100 0,-68 130,-68 130,-100"/>
<text xml:space="preserve" text-anchor="start" x="8" y="-86.5" font-family="Helvetica,sans-Serif" font-size="10.00">example/driver_max30102</text>
<text xml:space="preserve" text-anchor="middle" x="65" y="-74.5" font-family="Helvetica,sans-Serif" font-size="10.00">_fifo.h</text>
</a>
</g>
</g>
<!-- Node2&#45;&gt;Node3 -->
<g id="edge2_Node000002_Node000003" class="edge">
<title>Node2&#45;&gt;Node3</title>
<g id="a_edge2_Node000002_Node000003"><a xlink:title=" ">
<path fill="none" stroke="#63b8ff" d="M220.23,-132.21C187.24,-122.18 147.12,-109.98 115.93,-100.49"/>
<polygon fill="#63b8ff" stroke="#63b8ff" points="219.09,-135.52 229.68,-135.09 221.13,-128.83 219.09,-135.52"/>
</a>
</g>
</g>
<!-- Node5 -->
<g id="Node000005" class="node">
<title>Node5</title>
<g id="a_Node000005"><a xlink:href="driver__max30102__interface__template_8c.html" target="_top" xlink:title="driver max30102 interface template source file">
<polygon fill="white" stroke="#666666" points="278.38,-100 147.62,-100 147.62,-68 278.38,-68 278.38,-100"/>
<text xml:space="preserve" text-anchor="start" x="155.62" y="-86.5" font-family="Helvetica,sans-Serif" font-size="10.00">interface/driver_max30102</text>
<text xml:space="preserve" text-anchor="middle" x="213" y="-74.5" font-family="Helvetica,sans-Serif" font-size="10.00">_interface_template.c</text>
</a>
</g>
</g>
<!-- Node2&#45;&gt;Node5 -->
<g id="edge4_Node000002_Node000005" class="edge">
<title>Node2&#45;&gt;Node5</title>
<g id="a_edge4_Node000002_Node000005"><a xlink:title=" ">
<path fill="none" stroke="#63b8ff" d="M257.94,-127.99C248.33,-118.79 237.52,-108.46 228.92,-100.22"/>
<polygon fill="#63b8ff" stroke="#63b8ff" points="255.26,-130.26 264.9,-134.65 260.1,-125.2 255.26,-130.26"/>
</a>
</g>
</g>
<!-- Node6 -->
<g id="Node000006" class="node">
<title>Node6</title>
<g id="a_Node000006"><a xlink:href="driver__max30102__fifo__test_8h.html" target="_top" xlink:title="driver max30102 fifo test header file">
<polygon fill="white" stroke="#666666" points="405.88,-100 296.12,-100 296.12,-68 405.88,-68 405.88,-100"/>
<text xml:space="preserve" text-anchor="start" x="304.12" y="-86.5" font-family="Helvetica,sans-Serif" font-size="10.00">test/driver_max30102</text>
<text xml:space="preserve" text-anchor="middle" x="351" y="-74.5" font-family="Helvetica,sans-Serif" font-size="10.00">_fifo_test.h</text>
</a>
</g>
</g>
<!-- Node2&#45;&gt;Node6 -->
<g id="edge5_Node000002_Node000006" class="edge">
<title>Node2&#45;&gt;Node6</title>
<g id="a_edge5_Node000002_Node000006"><a xlink:title=" ">
<path fill="none" stroke="#63b8ff" d="M306.06,-127.99C315.67,-118.79 326.48,-108.46 335.08,-100.22"/>
<polygon fill="#63b8ff" stroke="#63b8ff" points="303.9,-125.2 299.1,-134.65 308.74,-130.26 303.9,-125.2"/>
</a>
</g>
</g>
<!-- Node8 -->
<g id="Node000008" class="node">
<title>Node8</title>
<g id="a_Node000008"><a xlink:href="driver__max30102__register__test_8h.html" target="_top" xlink:title="driver max30102 register test header file">
<polygon fill="white" stroke="#666666" points="533.88,-100 424.12,-100 424.12,-68 533.88,-68 533.88,-100"/>
<text xml:space="preserve" text-anchor="start" x="432.12" y="-86.5" font-family="Helvetica,sans-Serif" font-size="10.00">test/driver_max30102</text>
<text xml:space="preserve" text-anchor="middle" x="479" y="-74.5" font-family="Helvetica,sans-Serif" font-size="10.00">_register_test.h</text>
</a>
</g>
</g>
<!-- Node2&#45;&gt;Node8 -->
<g id="edge7_Node000002_Node000008" class="edge">
<title>Node2&#45;&gt;Node8</title>
<g id="a_edge7_Node000002_Node000008"><a xlink:title=" ">
<path fill="none" stroke="#63b8ff" d="M338.86,-131.95C368.66,-121.97 404.69,-109.89 432.76,-100.49"/>
<polygon fill="#63b8ff" stroke="#63b8ff" points="337.99,-128.55 329.62,-135.05 340.22,-135.19 337.99,-128.55"/>
</a>
</g>
</g>
<!-- Node4 -->
<g id="Node000004" class="node">
<title>Node4</title>
<g id="a_Node000004"><a xlink:href="driver__max30102__fifo_8c.html" target="_top" xlink:title="driver max30102 fifo source file">
<polygon fill="white" stroke="#666666" points="130,-32 0,-32 0,0 130,0 130,-32"/>
<text xml:space="preserve" text-anchor="start" x="8" y="-18.5" font-family="Helvetica,sans-Serif" font-size="10.00">example/driver_max30102</text>
<text xml:space="preserve" text-anchor="middle" x="65" y="-6.5" font-family="Helvetica,sans-Serif" font-size="10.00">_fifo.c</text>
</a>
</g>
</g>
<!-- Node3&#45;&gt;Node4 -->
<g id="edge3_Node000003_Node000004" class="edge">
<title>Node3&#45;&gt;Node4</title>
<g id="a_edge3_Node000003_Node000004"><a xlink:title=" ">
<path fill="none" stroke="#63b8ff" d="M65,-56.31C65,-48.12 65,-39.38 65,-32.22"/>
<polygon fill="#63b8ff" stroke="#63b8ff" points="61.5,-56.18 65,-66.18 68.5,-56.18 61.5,-56.18"/>
</a>
</g>
</g>
<!-- Node7 -->
<g id="Node000007" class="node">
<title>Node7</title>
<g id="a_Node000007"><a xlink:href="driver__max30102__fifo__test_8c.html" target="_top" xlink:title="driver max30102 fifo test source file">
<polygon fill="white" stroke="#666666" points="405.88,-32 296.12,-32 296.12,0 405.88,0 405.88,-32"/>
<text xml:space="preserve" text-anchor="start" x="304.12" y="-18.5" font-family="Helvetica,sans-Serif" font-size="10.00">test/driver_max30102</text>
<text xml:space="preserve" text-anchor="middle" x="351" y="-6.5" font-family="Helvetica,sans-Serif" font-size="10.00">_fifo_test.c</text>
</a>
</g>
</g>
<!-- Node6&#45;&gt;Node7 -->
<g id="edge6_Node000006_Node000007" class="edge">
<title>Node6&#45;&gt;Node7</title>
<g id="a_edge6_Node000006_Node000007"><a xlink:title=" ">
<path fill="none" stroke="#63b8ff" d="M351,-56.31C351,-48.12 351,-39.38 351,-32.22"/>
<polygon fill="#63b8ff" stroke="#63b8ff" points="347.5,-56.18 351,-66.18 354.5,-56.18 347.5,-56.18"/>
</a>
</g>
</g>
<!-- Node9 -->
<g id="Node000009" class="node">
<title>Node9</title>
<g id="a_Node000009"><a xlink:href="driver__max30102__register__test_8c.html" target="_top" xlink:title="driver max30102 register test source file">
<polygon fill="white" stroke="#666666" points="533.88,-32 424.12,-32 424.12,0 533.88,0 533.88,-32"/>
<text xml:space="preserve" text-anchor="start" x="432.12" y="-18.5" font-family="Helvetica,sans-Serif" font-size="10.00">test/driver_max30102</text>
<text xml:space="preserve" text-anchor="middle" x="479" y="-6.5" font-family="Helvetica,sans-Serif" font-size="10.00">_register_test.c</text>
</a>
</g>
</g>
<!-- Node8&#45;&gt;Node9 -->
<g id="edge8_Node000008_Node000009" class="edge">
<title>Node8&#45;&gt;Node9</title>
<g id="a_edge8_Node000008_Node000009"><a xlink:title=" ">
<path fill="none" stroke="#63b8ff" d="M479,-56.31C479,-48.12 479,-39.38 479,-32.22"/>
<polygon fill="#63b8ff" stroke="#63b8ff" points="475.5,-56.18 479,-66.18 482.5,-56.18 475.5,-56.18"/>
</a>
</g>
</g>
</g>
</svg>
