<?xml version="1.0" encoding="UTF-8" standalone="no"?>
<!DOCTYPE svg PUBLIC "-//W3C//DTD SVG 1.1//EN"
 "http://www.w3.org/Graphics/SVG/1.1/DTD/svg11.dtd">
<!-- Generated by graphviz version 13.1.0 (20250701.0955)
 -->
<!-- Title: max30102 driver function Pages: 1 -->
<svg width="297pt" height="290pt"
 viewBox="0.00 0.00 297.00 290.00" xmlns="http://www.w3.org/2000/svg" xmlns:xlink="http://www.w3.org/1999/xlink">
<g id="graph0" class="graph" transform="scale(1 1) rotate(0) translate(4 286)">
<title>max30102 driver function</title>
<!-- Node3 -->
<g id="Node000003" class="node">
<title>Node3</title>
<g id="a_Node000003"><a xlink:href="group__max30102__basic__driver.html" target="_top" xlink:title="max30102 basic driver modules">
<polygon fill="white" stroke="#666666" points="282.5,-282 168.25,-282 168.25,-250 282.5,-250 282.5,-282"/>
<text xml:space="preserve" text-anchor="start" x="176.25" y="-268.5" font-family="Helvetica,sans-Serif" font-size="10.00">max30102 basic driver</text>
<text xml:space="preserve" text-anchor="middle" x="225.38" y="-256.5" font-family="Helvetica,sans-Serif" font-size="10.00"> function</text>
</a>
</g>
</g>
<!-- Node1 -->
<g id="Node000001" class="node">
<title>Node1</title>
<g id="a_Node000001"><a xlink:title="max30102 driver modules">
<polygon fill="#999999" stroke="#666666" points="125.5,-151 0,-151 0,-131 125.5,-131 125.5,-151"/>
<text xml:space="preserve" text-anchor="middle" x="62.75" y="-137.5" font-family="Helvetica,sans-Serif" font-size="10.00">max30102 driver function</text>
</a>
</g>
</g>
<!-- Node1&#45;&gt;Node3 -->
<g id="edge2" class="edge">
<title>Node1&#45;&gt;Node3</title>
<path fill="none" stroke="black" d="M78.39,-160.26C96.02,-182.34 127.53,-218.37 161.5,-241 166.29,-244.19 171.55,-247.08 176.93,-249.66"/>
<polygon fill="black" stroke="black" points="81.36,-158.38 72.44,-152.66 75.85,-162.69 81.36,-158.38"/>
</g>
<!-- Node6 -->
<g id="Node000006" class="node">
<title>Node6</title>
<g id="a_Node000006"><a xlink:href="group__max30102__example__driver.html" target="_top" xlink:title="max30102 example driver modules">
<polygon fill="white" stroke="#666666" points="289.25,-232 161.5,-232 161.5,-200 289.25,-200 289.25,-232"/>
<text xml:space="preserve" text-anchor="start" x="169.5" y="-218.5" font-family="Helvetica,sans-Serif" font-size="10.00">max30102 example driver</text>
<text xml:space="preserve" text-anchor="middle" x="225.38" y="-206.5" font-family="Helvetica,sans-Serif" font-size="10.00"> function</text>
</a>
</g>
</g>
<!-- Node1&#45;&gt;Node6 -->
<g id="edge5" class="edge">
<title>Node1&#45;&gt;Node6</title>
<path fill="none" stroke="black" d="M92.55,-156.64C111.84,-166.88 137.92,-180.31 161.5,-191 167.92,-193.91 174.78,-196.83 181.53,-199.59"/>
<polygon fill="black" stroke="black" points="94.4,-153.66 83.93,-152.03 91.1,-159.83 94.4,-153.66"/>
</g>
<!-- Node4 -->
<g id="Node000004" class="node">
<title>Node4</title>
<g id="a_Node000004"><a xlink:href="group__max30102__extern__driver.html" target="_top" xlink:title="max30102 extern driver modules">
<polygon fill="white" stroke="#666666" points="284.38,-182 166.38,-182 166.38,-150 284.38,-150 284.38,-182"/>
<text xml:space="preserve" text-anchor="start" x="174.38" y="-168.5" font-family="Helvetica,sans-Serif" font-size="10.00">max30102 extern driver</text>
<text xml:space="preserve" text-anchor="middle" x="225.38" y="-156.5" font-family="Helvetica,sans-Serif" font-size="10.00"> function</text>
</a>
</g>
</g>
<!-- Node1&#45;&gt;Node4 -->
<g id="edge3" class="edge">
<title>Node1&#45;&gt;Node4</title>
<path fill="none" stroke="black" d="M137.16,-152.43C146.87,-153.94 156.72,-155.47 166.12,-156.93"/>
<polygon fill="black" stroke="black" points="137.77,-148.98 127.35,-150.9 136.69,-155.89 137.77,-148.98"/>
</g>
<!-- Node5 -->
<g id="Node000005" class="node">
<title>Node5</title>
<g id="a_Node000005"><a xlink:href="group__max30102__interface__driver.html" target="_top" xlink:title="max30102 interface driver modules">
<polygon fill="white" stroke="#666666" points="276.12,-132 174.62,-132 174.62,-100 276.12,-100 276.12,-132"/>
<text xml:space="preserve" text-anchor="start" x="182.62" y="-118.5" font-family="Helvetica,sans-Serif" font-size="10.00">max30102 interface</text>
<text xml:space="preserve" text-anchor="middle" x="225.38" y="-106.5" font-family="Helvetica,sans-Serif" font-size="10.00"> driver function</text>
</a>
</g>
</g>
<!-- Node1&#45;&gt;Node5 -->
<g id="edge4" class="edge">
<title>Node1&#45;&gt;Node5</title>
<path fill="none" stroke="black" d="M136.9,-129.62C149.58,-127.64 162.49,-125.63 174.37,-123.78"/>
<polygon fill="black" stroke="black" points="136.69,-126.11 127.35,-131.1 137.77,-133.02 136.69,-126.11"/>
</g>
<!-- Node2 -->
<g id="Node000002" class="node">
<title>Node2</title>
<g id="a_Node000002"><a xlink:href="group__max30102__link__driver.html" target="_top" xlink:title="max30102 link driver modules">
<polygon fill="white" stroke="#666666" points="278.38,-82 172.38,-82 172.38,-50 278.38,-50 278.38,-82"/>
<text xml:space="preserve" text-anchor="start" x="180.38" y="-68.5" font-family="Helvetica,sans-Serif" font-size="10.00">max30102 link driver</text>
<text xml:space="preserve" text-anchor="middle" x="225.38" y="-56.5" font-family="Helvetica,sans-Serif" font-size="10.00"> function</text>
</a>
</g>
</g>
<!-- Node1&#45;&gt;Node2 -->
<g id="edge1" class="edge">
<title>Node1&#45;&gt;Node2</title>
<path fill="none" stroke="black" d="M92.55,-125.36C111.84,-115.12 137.92,-101.69 161.5,-91 167.92,-88.09 174.78,-85.17 181.53,-82.41"/>
<polygon fill="black" stroke="black" points="91.1,-122.17 83.93,-129.97 94.4,-128.34 91.1,-122.17"/>
</g>
<!-- Node7 -->
<g id="Node000007" class="node">
<title>Node7</title>
<g id="a_Node000007"><a xlink:href="group__max30102__test__driver.html" target="_top" xlink:title="max30102 test driver modules">
<polygon fill="white" stroke="#666666" points="279.12,-32 171.62,-32 171.62,0 279.12,0 279.12,-32"/>
<text xml:space="preserve" text-anchor="start" x="179.62" y="-18.5" font-family="Helvetica,sans-Serif" font-size="10.00">max30102 test driver</text>
<text xml:space="preserve" text-anchor="middle" x="225.38" y="-6.5" font-family="Helvetica,sans-Serif" font-size="10.00"> function</text>
</a>
</g>
</g>
<!-- Node1&#45;&gt;Node7 -->
<g id="edge6" class="edge">
<title>Node1&#45;&gt;Node7</title>
<path fill="none" stroke="black" d="M78.39,-121.74C96.02,-99.66 127.53,-63.63 161.5,-41 166.29,-37.81 171.55,-34.92 176.93,-32.34"/>
<polygon fill="black" stroke="black" points="75.85,-119.31 72.44,-129.34 81.36,-123.62 75.85,-119.31"/>
</g>
</g>
</svg>
