<?xml version="1.0" encoding="UTF-8" standalone="no"?>
<!DOCTYPE svg PUBLIC "-//W3C//DTD SVG 1.1//EN"
 "http://www.w3.org/Graphics/SVG/1.1/DTD/svg11.dtd">
<!-- Generated by graphviz version 13.1.0 (20250701.0955)
 -->
<!-- Title: max30102_fifo_init Pages: 1 -->
<svg width="306pt" height="958pt"
 viewBox="0.00 0.00 306.00 958.00" xmlns="http://www.w3.org/2000/svg" xmlns:xlink="http://www.w3.org/1999/xlink">
<g id="graph0" class="graph" transform="scale(1 1) rotate(0) translate(4 954)">
<title>max30102_fifo_init</title>
<!-- Node1 -->
<g id="Node000001" class="node">
<title>Node1</title>
<g id="a_Node000001"><a xlink:title="fifo example init">
<polygon fill="#999999" stroke="#666666" points="97.75,-467 0,-467 0,-447 97.75,-447 97.75,-467"/>
<text xml:space="preserve" text-anchor="middle" x="48.88" y="-453.5" font-family="Helvetica,sans-Serif" font-size="10.00">max30102_fifo_init</text>
</a>
</g>
</g>
<!-- Node2 -->
<g id="Node000002" class="node">
<title>Node2</title>
<g id="a_Node000002"><a xlink:href="group__max30102__basic__driver.html#ga6df9ef71baaf8e4d4a2d15fbeaf2d3b3" target="_top" xlink:title="close the chip">
<polygon fill="white" stroke="#666666" points="260.75,-950 171.25,-950 171.25,-930 260.75,-930 260.75,-950"/>
<text xml:space="preserve" text-anchor="middle" x="216" y="-936.5" font-family="Helvetica,sans-Serif" font-size="10.00">max30102_deinit</text>
</a>
</g>
</g>
<!-- Node1&#45;&gt;Node2 -->
<g id="edge1_Node000001_Node000002" class="edge">
<title>Node1&#45;&gt;Node2</title>
<g id="a_edge1_Node000001_Node000002"><a xlink:title=" ">
<path fill="none" stroke="#63b8ff" d="M50.25,-467.45C52.74,-529.81 68.62,-852.46 133.75,-921 140.86,-928.48 150.3,-933.27 160.23,-936.28"/>
<polygon fill="#63b8ff" stroke="#63b8ff" points="159.09,-939.61 169.64,-938.55 160.73,-932.81 159.09,-939.61"/>
</a>
</g>
</g>
<!-- Node3 -->
<g id="Node000003" class="node">
<title>Node3</title>
<g id="a_Node000003"><a xlink:href="group__max30102__basic__driver.html#ga2d79875b7a567be48039c94eba57ef5b" target="_top" xlink:title="get the interrupt status">
<polygon fill="white" stroke="#666666" points="276.12,-912 155.88,-912 155.88,-880 276.12,-880 276.12,-912"/>
<text xml:space="preserve" text-anchor="start" x="163.88" y="-898.5" font-family="Helvetica,sans-Serif" font-size="10.00">max30102_get_interrupt</text>
<text xml:space="preserve" text-anchor="middle" x="216" y="-886.5" font-family="Helvetica,sans-Serif" font-size="10.00">_status</text>
</a>
</g>
</g>
<!-- Node1&#45;&gt;Node3 -->
<g id="edge2_Node000001_Node000003" class="edge">
<title>Node1&#45;&gt;Node3</title>
<g id="a_edge2_Node000001_Node000003"><a xlink:title=" ">
<path fill="none" stroke="#63b8ff" d="M50.57,-467.39C54.64,-525.36 77.25,-808.64 133.75,-871 137.19,-874.79 141.18,-878.02 145.53,-880.76"/>
<polygon fill="#63b8ff" stroke="#63b8ff" points="143.69,-883.74 154.16,-885.31 146.95,-877.55 143.69,-883.74"/>
</a>
</g>
</g>
<!-- Node4 -->
<g id="Node000004" class="node">
<title>Node4</title>
<g id="a_Node000004"><a xlink:href="group__max30102__basic__driver.html#gac4af27d224c04f9919d039414f30bde1" target="_top" xlink:title="initialize the chip">
<polygon fill="white" stroke="#666666" points="255.5,-862 176.5,-862 176.5,-842 255.5,-842 255.5,-862"/>
<text xml:space="preserve" text-anchor="middle" x="216" y="-848.5" font-family="Helvetica,sans-Serif" font-size="10.00">max30102_init</text>
</a>
</g>
</g>
<!-- Node1&#45;&gt;Node4 -->
<g id="edge3_Node000001_Node000004" class="edge">
<title>Node1&#45;&gt;Node4</title>
<g id="a_edge3_Node000001_Node000004"><a xlink:title=" ">
<path fill="none" stroke="#63b8ff" d="M50.71,-467.2C55.38,-521.77 80,-778.69 133.75,-833 142.17,-841.5 153.61,-846.5 165.25,-849.36"/>
<polygon fill="#63b8ff" stroke="#63b8ff" points="164.42,-852.77 174.9,-851.22 165.74,-845.89 164.42,-852.77"/>
</a>
</g>
</g>
<!-- Node5 -->
<g id="Node000005" class="node">
<title>Node5</title>
<g id="a_Node000005"><a xlink:href="group__max30102__interface__driver.html#ga727fed3ba40231426a79130a5c8f8350" target="_top" xlink:title="interface print format data">
<polygon fill="white" stroke="#666666" points="267.88,-824 164.12,-824 164.12,-792 267.88,-792 267.88,-824"/>
<text xml:space="preserve" text-anchor="start" x="172.12" y="-810.5" font-family="Helvetica,sans-Serif" font-size="10.00">max30102_interface</text>
<text xml:space="preserve" text-anchor="middle" x="216" y="-798.5" font-family="Helvetica,sans-Serif" font-size="10.00">_debug_print</text>
</a>
</g>
</g>
<!-- Node1&#45;&gt;Node5 -->
<g id="edge4_Node000001_Node000005" class="edge">
<title>Node1&#45;&gt;Node5</title>
<g id="a_edge4_Node000001_Node000005"><a xlink:title=" ">
<path fill="none" stroke="#63b8ff" d="M51.18,-467.41C57.7,-517.73 88.16,-735.23 133.75,-783 139.28,-788.8 146.13,-793.26 153.47,-796.7"/>
<polygon fill="#63b8ff" stroke="#63b8ff" points="151.74,-799.77 162.32,-800.21 154.32,-793.27 151.74,-799.77"/>
</a>
</g>
</g>
<!-- Node6 -->
<g id="Node000006" class="node">
<title>Node6</title>
<g id="a_Node000006"><a xlink:href="group__max30102__interface__driver.html#ga9c12ecc0b1affce73eb8cd3f86df5fc3" target="_top" xlink:title="interface delay ms">
<polygon fill="white" stroke="#666666" points="267.88,-774 164.12,-774 164.12,-742 267.88,-742 267.88,-774"/>
<text xml:space="preserve" text-anchor="start" x="172.12" y="-760.5" font-family="Helvetica,sans-Serif" font-size="10.00">max30102_interface</text>
<text xml:space="preserve" text-anchor="middle" x="216" y="-748.5" font-family="Helvetica,sans-Serif" font-size="10.00">_delay_ms</text>
</a>
</g>
</g>
<!-- Node1&#45;&gt;Node6 -->
<g id="edge5_Node000001_Node000006" class="edge">
<title>Node1&#45;&gt;Node6</title>
<g id="a_edge5_Node000001_Node000006"><a xlink:title=" ">
<path fill="none" stroke="#63b8ff" d="M49.77,-467.48C49.96,-507.89 56.16,-655.14 133.75,-733 139.34,-738.61 146.17,-742.97 153.45,-746.35"/>
<polygon fill="#63b8ff" stroke="#63b8ff" points="152,-749.54 162.58,-749.96 154.57,-743.03 152,-749.54"/>
</a>
</g>
</g>
<!-- Node7 -->
<g id="Node000007" class="node">
<title>Node7</title>
<g id="a_Node000007"><a xlink:href="group__max30102__interface__driver.html#ga80773c8b130e2746f7fcbb74097ef978" target="_top" xlink:title="interface iic bus deinit">
<polygon fill="white" stroke="#666666" points="267.88,-724 164.12,-724 164.12,-692 267.88,-692 267.88,-724"/>
<text xml:space="preserve" text-anchor="start" x="172.12" y="-710.5" font-family="Helvetica,sans-Serif" font-size="10.00">max30102_interface</text>
<text xml:space="preserve" text-anchor="middle" x="216" y="-698.5" font-family="Helvetica,sans-Serif" font-size="10.00">_iic_deinit</text>
</a>
</g>
</g>
<!-- Node1&#45;&gt;Node7 -->
<g id="edge6_Node000001_Node000007" class="edge">
<title>Node1&#45;&gt;Node7</title>
<g id="a_edge6_Node000001_Node000007"><a xlink:title=" ">
<path fill="none" stroke="#63b8ff" d="M50.57,-467.28C53.5,-502.71 68.04,-620.92 133.75,-683 139.37,-688.31 146.1,-692.5 153.24,-695.79"/>
<polygon fill="#63b8ff" stroke="#63b8ff" points="151.92,-699.04 162.51,-699.46 154.5,-692.53 151.92,-699.04"/>
</a>
</g>
</g>
<!-- Node8 -->
<g id="Node000008" class="node">
<title>Node8</title>
<g id="a_Node000008"><a xlink:href="group__max30102__interface__driver.html#ga0cfd8a5f9ecee38ed3f5b02bb84ae844" target="_top" xlink:title="interface iic bus init">
<polygon fill="white" stroke="#666666" points="267.88,-674 164.12,-674 164.12,-642 267.88,-642 267.88,-674"/>
<text xml:space="preserve" text-anchor="start" x="172.12" y="-660.5" font-family="Helvetica,sans-Serif" font-size="10.00">max30102_interface</text>
<text xml:space="preserve" text-anchor="middle" x="216" y="-648.5" font-family="Helvetica,sans-Serif" font-size="10.00">_iic_init</text>
</a>
</g>
</g>
<!-- Node1&#45;&gt;Node8 -->
<g id="edge7_Node000001_Node000008" class="edge">
<title>Node1&#45;&gt;Node8</title>
<g id="a_edge7_Node000001_Node000008"><a xlink:title=" ">
<path fill="none" stroke="#63b8ff" d="M51.73,-467.08C57.77,-497.03 79.7,-586.32 133.75,-633 139.53,-637.99 146.29,-641.98 153.4,-645.18"/>
<polygon fill="#63b8ff" stroke="#63b8ff" points="152,-648.39 162.59,-648.77 154.54,-641.87 152,-648.39"/>
</a>
</g>
</g>
<!-- Node9 -->
<g id="Node000009" class="node">
<title>Node9</title>
<g id="a_Node000009"><a xlink:href="group__max30102__interface__driver.html#ga77594a3d409097d420970bdd2f33ab9b" target="_top" xlink:title="interface iic bus read">
<polygon fill="white" stroke="#666666" points="267.88,-624 164.12,-624 164.12,-592 267.88,-592 267.88,-624"/>
<text xml:space="preserve" text-anchor="start" x="172.12" y="-610.5" font-family="Helvetica,sans-Serif" font-size="10.00">max30102_interface</text>
<text xml:space="preserve" text-anchor="middle" x="216" y="-598.5" font-family="Helvetica,sans-Serif" font-size="10.00">_iic_read</text>
</a>
</g>
</g>
<!-- Node1&#45;&gt;Node9 -->
<g id="edge8_Node000001_Node000009" class="edge">
<title>Node1&#45;&gt;Node9</title>
<g id="a_edge8_Node000001_Node000009"><a xlink:title=" ">
<path fill="none" stroke="#63b8ff" d="M53.82,-467.22C63.58,-491.16 91.2,-551.26 133.75,-583 139.71,-587.45 146.47,-591.11 153.49,-594.13"/>
<polygon fill="#63b8ff" stroke="#63b8ff" points="151.89,-597.26 162.48,-597.57 154.39,-590.73 151.89,-597.26"/>
</a>
</g>
</g>
<!-- Node10 -->
<g id="Node000010" class="node">
<title>Node10</title>
<g id="a_Node000010"><a xlink:href="group__max30102__interface__driver.html#gafebd67558e51eab861f7edeacc859de3" target="_top" xlink:title="interface iic bus write">
<polygon fill="white" stroke="#666666" points="267.88,-574 164.12,-574 164.12,-542 267.88,-542 267.88,-574"/>
<text xml:space="preserve" text-anchor="start" x="172.12" y="-560.5" font-family="Helvetica,sans-Serif" font-size="10.00">max30102_interface</text>
<text xml:space="preserve" text-anchor="middle" x="216" y="-548.5" font-family="Helvetica,sans-Serif" font-size="10.00">_iic_write</text>
</a>
</g>
</g>
<!-- Node1&#45;&gt;Node10 -->
<g id="edge9_Node000001_Node000010" class="edge">
<title>Node1&#45;&gt;Node10</title>
<g id="a_edge9_Node000001_Node000010"><a xlink:title=" ">
<path fill="none" stroke="#63b8ff" d="M58.59,-467.41C72.74,-483.68 102.32,-515.12 133.75,-533 139.81,-536.45 146.4,-539.48 153.12,-542.12"/>
<polygon fill="#63b8ff" stroke="#63b8ff" points="151.71,-545.33 162.31,-545.45 154.1,-538.75 151.71,-545.33"/>
</a>
</g>
</g>
<!-- Node11 -->
<g id="Node000011" class="node">
<title>Node11</title>
<g id="a_Node000011"><a xlink:href="group__max30102__basic__driver.html#gad16d6dc6c9af23e46d050011f4c0734e" target="_top" xlink:title="set the adc resolution">
<polygon fill="white" stroke="#666666" points="290,-524 142,-524 142,-504 290,-504 290,-524"/>
<text xml:space="preserve" text-anchor="middle" x="216" y="-510.5" font-family="Helvetica,sans-Serif" font-size="10.00">max30102_set_adc_resolution</text>
</a>
</g>
</g>
<!-- Node1&#45;&gt;Node11 -->
<g id="edge10_Node000001_Node000011" class="edge">
<title>Node1&#45;&gt;Node11</title>
<g id="a_edge10_Node000001_Node000011"><a xlink:title=" ">
<path fill="none" stroke="#63b8ff" d="M69.76,-467.35C86.48,-475.72 111.2,-487.34 133.75,-495 139.81,-497.06 146.2,-498.98 152.63,-500.73"/>
<polygon fill="#63b8ff" stroke="#63b8ff" points="151.4,-504.03 161.96,-503.16 153.17,-497.26 151.4,-504.03"/>
</a>
</g>
</g>
<!-- Node12 -->
<g id="Node000012" class="node">
<title>Node12</title>
<g id="a_Node000012"><a xlink:href="group__max30102__basic__driver.html#ga0f209a516214230a15386ae03c6d1825" target="_top" xlink:title="enable or disable die temperature">
<polygon fill="white" stroke="#666666" points="293.38,-486 138.62,-486 138.62,-466 293.38,-466 293.38,-486"/>
<text xml:space="preserve" text-anchor="middle" x="216" y="-472.5" font-family="Helvetica,sans-Serif" font-size="10.00">max30102_set_die_temperature</text>
</a>
</g>
</g>
<!-- Node1&#45;&gt;Node12 -->
<g id="edge11_Node000001_Node000012" class="edge">
<title>Node1&#45;&gt;Node12</title>
<g id="a_edge11_Node000001_Node000012"><a xlink:title=" ">
<path fill="none" stroke="#63b8ff" d="M98.08,-462.55C107.21,-463.6 117.02,-464.73 126.94,-465.87"/>
<polygon fill="#63b8ff" stroke="#63b8ff" points="126.31,-469.32 136.65,-466.98 127.11,-462.36 126.31,-469.32"/>
</a>
</g>
</g>
<!-- Node13 -->
<g id="Node000013" class="node">
<title>Node13</title>
<g id="a_Node000013"><a xlink:href="group__max30102__basic__driver.html#ga32a16dd243a07ff7912033bbdca18c2a" target="_top" xlink:title="set the fifo almost full value">
<polygon fill="white" stroke="#666666" points="291.5,-448 140.5,-448 140.5,-428 291.5,-428 291.5,-448"/>
<text xml:space="preserve" text-anchor="middle" x="216" y="-434.5" font-family="Helvetica,sans-Serif" font-size="10.00">max30102_set_fifo_almost_full</text>
</a>
</g>
</g>
<!-- Node1&#45;&gt;Node13 -->
<g id="edge12_Node000001_Node000013" class="edge">
<title>Node1&#45;&gt;Node13</title>
<g id="a_edge12_Node000001_Node000013"><a xlink:title=" ">
<path fill="none" stroke="#63b8ff" d="M98.08,-451.45C107.73,-450.34 118.14,-449.15 128.63,-447.94"/>
<polygon fill="#63b8ff" stroke="#63b8ff" points="128.97,-451.42 138.51,-446.8 128.17,-444.47 128.97,-451.42"/>
</a>
</g>
</g>
<!-- Node14 -->
<g id="Node000014" class="node">
<title>Node14</title>
<g id="a_Node000014"><a xlink:href="group__max30102__basic__driver.html#ga2202c0221574e735c748304dfab49388" target="_top" xlink:title="enable or disable the fifo roll">
<polygon fill="white" stroke="#666666" points="274.25,-410 157.75,-410 157.75,-390 274.25,-390 274.25,-410"/>
<text xml:space="preserve" text-anchor="middle" x="216" y="-396.5" font-family="Helvetica,sans-Serif" font-size="10.00">max30102_set_fifo_roll</text>
</a>
</g>
</g>
<!-- Node1&#45;&gt;Node14 -->
<g id="edge13_Node000001_Node000014" class="edge">
<title>Node1&#45;&gt;Node14</title>
<g id="a_edge13_Node000001_Node000014"><a xlink:title=" ">
<path fill="none" stroke="#63b8ff" d="M69.76,-446.65C86.48,-438.28 111.2,-426.66 133.75,-419 139.81,-416.94 146.2,-415.02 152.63,-413.27"/>
<polygon fill="#63b8ff" stroke="#63b8ff" points="153.17,-416.74 161.96,-410.84 151.4,-409.97 153.17,-416.74"/>
</a>
</g>
</g>
<!-- Node15 -->
<g id="Node000015" class="node">
<title>Node15</title>
<g id="a_Node000015"><a xlink:href="group__max30102__basic__driver.html#ga386318efbca2fd43241c63aed27a6738" target="_top" xlink:title="set the fifo sample averaging">
<polygon fill="white" stroke="#666666" points="283.62,-372 148.38,-372 148.38,-340 283.62,-340 283.62,-372"/>
<text xml:space="preserve" text-anchor="start" x="156.38" y="-358.5" font-family="Helvetica,sans-Serif" font-size="10.00">max30102_set_fifo_sample</text>
<text xml:space="preserve" text-anchor="middle" x="216" y="-346.5" font-family="Helvetica,sans-Serif" font-size="10.00">_averaging</text>
</a>
</g>
</g>
<!-- Node1&#45;&gt;Node15 -->
<g id="edge14_Node000001_Node000015" class="edge">
<title>Node1&#45;&gt;Node15</title>
<g id="a_edge14_Node000001_Node000015"><a xlink:title=" ">
<path fill="none" stroke="#63b8ff" d="M58.59,-446.59C72.74,-430.32 102.32,-398.88 133.75,-381 136.22,-379.59 138.78,-378.26 141.39,-376.99"/>
<polygon fill="#63b8ff" stroke="#63b8ff" points="142.62,-380.28 150.35,-373.04 139.79,-373.87 142.62,-380.28"/>
</a>
</g>
</g>
<!-- Node16 -->
<g id="Node000016" class="node">
<title>Node16</title>
<g id="a_Node000016"><a xlink:href="group__max30102__basic__driver.html#ga9d84a848ee5039c0ffef09285ee3582e" target="_top" xlink:title="set the interrupt bool">
<polygon fill="white" stroke="#666666" points="276.12,-322 155.88,-322 155.88,-302 276.12,-302 276.12,-322"/>
<text xml:space="preserve" text-anchor="middle" x="216" y="-308.5" font-family="Helvetica,sans-Serif" font-size="10.00">max30102_set_interrupt</text>
</a>
</g>
</g>
<!-- Node1&#45;&gt;Node16 -->
<g id="edge15_Node000001_Node000016" class="edge">
<title>Node1&#45;&gt;Node16</title>
<g id="a_edge15_Node000001_Node000016"><a xlink:title=" ">
<path fill="none" stroke="#63b8ff" d="M53.68,-446.59C63.13,-422.22 90.14,-361.26 133.75,-331 137.23,-328.59 140.97,-326.48 144.87,-324.63"/>
<polygon fill="#63b8ff" stroke="#63b8ff" points="146.13,-327.9 154.09,-320.91 143.51,-321.41 146.13,-327.9"/>
</a>
</g>
</g>
<!-- Node17 -->
<g id="Node000017" class="node">
<title>Node17</title>
<g id="a_Node000017"><a xlink:href="group__max30102__basic__driver.html#gab245d4383f42ebc8c7e8ec430306c8a3" target="_top" xlink:title="set the ir led pulse amplitude">
<polygon fill="white" stroke="#666666" points="270.12,-284 161.88,-284 161.88,-252 270.12,-252 270.12,-284"/>
<text xml:space="preserve" text-anchor="start" x="169.88" y="-270.5" font-family="Helvetica,sans-Serif" font-size="10.00">max30102_set_led_ir</text>
<text xml:space="preserve" text-anchor="middle" x="216" y="-258.5" font-family="Helvetica,sans-Serif" font-size="10.00">_pulse_amplitude</text>
</a>
</g>
</g>
<!-- Node1&#45;&gt;Node17 -->
<g id="edge16_Node000001_Node000017" class="edge">
<title>Node1&#45;&gt;Node17</title>
<g id="a_edge16_Node000001_Node000017"><a xlink:title=" ">
<path fill="none" stroke="#63b8ff" d="M52.14,-446.79C59.05,-418.09 82.56,-335.97 133.75,-293 139.02,-288.58 145.06,-284.94 151.42,-281.94"/>
<polygon fill="#63b8ff" stroke="#63b8ff" points="152.3,-285.37 160.21,-278.32 149.63,-278.89 152.3,-285.37"/>
</a>
</g>
</g>
<!-- Node18 -->
<g id="Node000018" class="node">
<title>Node18</title>
<g id="a_Node000018"><a xlink:href="group__max30102__basic__driver.html#ga45a9307bd662fb6549280d2f238f5852" target="_top" xlink:title="set the red led pulse amplitude">
<polygon fill="white" stroke="#666666" points="274.25,-234 157.75,-234 157.75,-202 274.25,-202 274.25,-234"/>
<text xml:space="preserve" text-anchor="start" x="165.75" y="-220.5" font-family="Helvetica,sans-Serif" font-size="10.00">max30102_set_led_red</text>
<text xml:space="preserve" text-anchor="middle" x="216" y="-208.5" font-family="Helvetica,sans-Serif" font-size="10.00">_pulse_amplitude</text>
</a>
</g>
</g>
<!-- Node1&#45;&gt;Node18 -->
<g id="edge17_Node000001_Node000018" class="edge">
<title>Node1&#45;&gt;Node18</title>
<g id="a_edge17_Node000001_Node000018"><a xlink:title=" ">
<path fill="none" stroke="#63b8ff" d="M50.8,-446.78C54.44,-412.63 70.85,-301.35 133.75,-243 137.73,-239.31 142.25,-236.16 147.07,-233.47"/>
<polygon fill="#63b8ff" stroke="#63b8ff" points="148.41,-236.71 155.93,-229.24 145.4,-230.39 148.41,-236.71"/>
</a>
</g>
</g>
<!-- Node19 -->
<g id="Node000019" class="node">
<title>Node19</title>
<g id="a_Node000019"><a xlink:href="group__max30102__basic__driver.html#ga50c029f26afb81f3c9999ff16950ea57" target="_top" xlink:title="set the mode">
<polygon fill="white" stroke="#666666" points="270.5,-184 161.5,-184 161.5,-164 270.5,-164 270.5,-184"/>
<text xml:space="preserve" text-anchor="middle" x="216" y="-170.5" font-family="Helvetica,sans-Serif" font-size="10.00">max30102_set_mode</text>
</a>
</g>
</g>
<!-- Node1&#45;&gt;Node19 -->
<g id="edge18_Node000001_Node000019" class="edge">
<title>Node1&#45;&gt;Node19</title>
<g id="a_edge18_Node000001_Node000019"><a xlink:title=" ">
<path fill="none" stroke="#63b8ff" d="M49.78,-446.53C50.02,-406.87 56.43,-264.52 133.75,-193 138.66,-188.46 144.43,-184.94 150.6,-182.22"/>
<polygon fill="#63b8ff" stroke="#63b8ff" points="151.65,-185.57 159.86,-178.87 149.26,-178.99 151.65,-185.57"/>
</a>
</g>
</g>
<!-- Node20 -->
<g id="Node000020" class="node">
<title>Node20</title>
<g id="a_Node000020"><a xlink:href="group__max30102__basic__driver.html#ga55c40272d7a0edf5e57d6fe6cd78dce7" target="_top" xlink:title="set the shutdown">
<polygon fill="white" stroke="#666666" points="279.5,-146 152.5,-146 152.5,-126 279.5,-126 279.5,-146"/>
<text xml:space="preserve" text-anchor="middle" x="216" y="-132.5" font-family="Helvetica,sans-Serif" font-size="10.00">max30102_set_shutdown</text>
</a>
</g>
</g>
<!-- Node1&#45;&gt;Node20 -->
<g id="edge19_Node000001_Node000020" class="edge">
<title>Node1&#45;&gt;Node20</title>
<g id="a_edge19_Node000001_Node000020"><a xlink:title=" ">
<path fill="none" stroke="#63b8ff" d="M51.32,-446.65C58.26,-398.55 89.58,-197.39 133.75,-155 136.33,-152.52 139.17,-150.35 142.2,-148.44"/>
<polygon fill="#63b8ff" stroke="#63b8ff" points="143.75,-151.57 151.05,-143.89 140.55,-145.34 143.75,-151.57"/>
</a>
</g>
</g>
<!-- Node21 -->
<g id="Node000021" class="node">
<title>Node21</title>
<g id="a_Node000021"><a xlink:href="group__max30102__basic__driver.html#ga03fd0fef55aa27a1fca9173945c73886" target="_top" xlink:title="set the led slot">
<polygon fill="white" stroke="#666666" points="266.38,-108 165.62,-108 165.62,-88 266.38,-88 266.38,-108"/>
<text xml:space="preserve" text-anchor="middle" x="216" y="-94.5" font-family="Helvetica,sans-Serif" font-size="10.00">max30102_set_slot</text>
</a>
</g>
</g>
<!-- Node1&#45;&gt;Node21 -->
<g id="edge20_Node000001_Node000021" class="edge">
<title>Node1&#45;&gt;Node21</title>
<g id="a_edge20_Node000001_Node000021"><a xlink:title=" ">
<path fill="none" stroke="#63b8ff" d="M50.97,-446.77C56.68,-395.32 84.66,-165.5 133.75,-117 139.49,-111.33 146.59,-107.22 154.17,-104.27"/>
<polygon fill="#63b8ff" stroke="#63b8ff" points="155.19,-107.62 163.69,-101.28 153.1,-100.94 155.19,-107.62"/>
</a>
</g>
</g>
<!-- Node22 -->
<g id="Node000022" class="node">
<title>Node22</title>
<g id="a_Node000022"><a xlink:href="group__max30102__basic__driver.html#ga7069513dfbfe8e82a2dba2d928ded875" target="_top" xlink:title="set the spo2 adc range">
<polygon fill="white" stroke="#666666" points="279.5,-70 152.5,-70 152.5,-38 279.5,-38 279.5,-70"/>
<text xml:space="preserve" text-anchor="start" x="160.5" y="-56.5" font-family="Helvetica,sans-Serif" font-size="10.00">max30102_set_spo2_adc</text>
<text xml:space="preserve" text-anchor="middle" x="216" y="-44.5" font-family="Helvetica,sans-Serif" font-size="10.00">_range</text>
</a>
</g>
</g>
<!-- Node1&#45;&gt;Node22 -->
<g id="edge21_Node000001_Node000022" class="edge">
<title>Node1&#45;&gt;Node22</title>
<g id="a_edge21_Node000001_Node000022"><a xlink:title=" ">
<path fill="none" stroke="#63b8ff" d="M50.77,-446.81C55.74,-392.28 81.66,-135.44 133.75,-79 136.43,-76.09 139.45,-73.52 142.69,-71.24"/>
<polygon fill="#63b8ff" stroke="#63b8ff" points="144.19,-74.42 151.05,-66.35 140.66,-68.38 144.19,-74.42"/>
</a>
</g>
</g>
<!-- Node23 -->
<g id="Node000023" class="node">
<title>Node23</title>
<g id="a_Node000023"><a xlink:href="group__max30102__basic__driver.html#ga86906c2e439de763145eefae436db6b8" target="_top" xlink:title="set the spo2 sample rate">
<polygon fill="white" stroke="#666666" points="298.25,-20 133.75,-20 133.75,0 298.25,0 298.25,-20"/>
<text xml:space="preserve" text-anchor="middle" x="216" y="-6.5" font-family="Helvetica,sans-Serif" font-size="10.00">max30102_set_spo2_sample_rate</text>
</a>
</g>
</g>
<!-- Node1&#45;&gt;Node23 -->
<g id="edge22_Node000001_Node000023" class="edge">
<title>Node1&#45;&gt;Node23</title>
<g id="a_edge22_Node000001_Node000023"><a xlink:title=" ">
<path fill="none" stroke="#63b8ff" d="M50.42,-446.59C53.77,-387.21 73.3,-91.68 133.75,-29 134.48,-28.25 135.23,-27.52 136,-26.82"/>
<polygon fill="#63b8ff" stroke="#63b8ff" points="137.73,-29.89 143.78,-21.19 133.63,-24.22 137.73,-29.89"/>
</a>
</g>
</g>
</g>
</svg>
